<svg width="16" height="16" viewBox="0 0 16 16" fill="none" xmlns="http://www.w3.org/2000/svg">
<path d="M12.818 2.27273H12.1816V1.63636C12.1816 1.46759 12.1146 1.30573 11.9952 1.18639C11.8759 1.06705 11.714 1 11.5453 1C11.3765 1 11.2146 1.06705 11.0953 1.18639C10.976 1.30573 10.9089 1.46759 10.9089 1.63636V2.27273H5.818V1.63636C5.818 1.46759 5.75095 1.30573 5.63161 1.18639C5.51227 1.06705 5.35041 1 5.18163 1C5.01286 1 4.851 1.06705 4.73166 1.18639C4.61232 1.30573 4.54527 1.46759 4.54527 1.63636V2.27273H3.90891C3.40259 2.27273 2.917 2.47386 2.55898 2.83189C2.20095 3.18991 1.99982 3.6755 1.99982 4.18182V13.0909C1.99982 13.5972 2.20095 14.0828 2.55898 14.4408C2.917 14.7989 3.40259 15 3.90891 15H12.818C13.3243 15 13.8099 14.7989 14.1679 14.4408C14.526 14.0828 14.7271 13.5972 14.7271 13.0909V4.18182C14.7271 3.6755 14.526 3.18991 14.1679 2.83189C13.8099 2.47386 13.3243 2.27273 12.818 2.27273ZM13.4544 13.0909C13.4544 13.2597 13.3873 13.4215 13.268 13.5409C13.1486 13.6602 12.9868 13.7273 12.818 13.7273H3.90891C3.74013 13.7273 3.57827 13.6602 3.45893 13.5409C3.33959 13.4215 3.27254 13.2597 3.27254 13.0909V7.36364H13.4544V13.0909ZM13.4544 6.09091H3.27254V4.18182C3.27254 4.01304 3.33959 3.85118 3.45893 3.73184C3.57827 3.6125 3.74013 3.54545 3.90891 3.54545H4.54527V4.18182C4.54527 4.35059 4.61232 4.51245 4.73166 4.63179C4.851 4.75114 5.01286 4.81818 5.18163 4.81818C5.35041 4.81818 5.51227 4.75114 5.63161 4.63179C5.75095 4.51245 5.818 4.35059 5.818 4.18182V3.54545H10.9089V4.18182C10.9089 4.35059 10.976 4.51245 11.0953 4.63179C11.2146 4.75114 11.3765 4.81818 11.5453 4.81818C11.714 4.81818 11.8759 4.75114 11.9952 4.63179C12.1146 4.51245 12.1816 4.35059 12.1816 4.18182V3.54545H12.818C12.9868 3.54545 13.1486 3.6125 13.268 3.73184C13.3873 3.85118 13.4544 4.01304 13.4544 4.18182V6.09091Z" fill="#718096"/>
</svg>
